<svg xmlns="http://www.w3.org/2000/svg" viewBox="0 0 32 38" fill="none">
  <rect width="32" height="38" rx="7" fill="#F1E8D6"/>
  <g fill="none" stroke="#44614E" stroke-width="1.7" stroke-linecap="round" stroke-linejoin="round">
    <path d="M16 35 C15.4 27 15.4 19.5 17.4 7.5"/>
    <path d="M15.6 26.5 C20 26.5 24 24.5 26.4 20.4 C22 19.8 18 21.7 15.6 26.5 Z"/>
    <path d="M16 22 C11.8 22 8 20.2 5.4 16.2 C9.8 15.6 13.8 17.5 16 22 Z"/>
    <path d="M16.5 16.8 C20.3 16.2 23.6 14.3 25.6 10.6 C21.5 10 18.2 11.9 16.5 16.8 Z"/>
    <path d="M16.8 12 C13.3 11.4 10.2 9.5 8.3 6.4 C11.7 6 15 7.9 16.8 12 Z"/>
  </g>
  <circle cx="17.6" cy="6.8" r="2.5" fill="#C5664A"/>
</svg>
